# xmcd
#
# Track frame offsets: 
#        150
#        23191
#        39316
#        59705
#        79548
#        96739
#        117258
#        137491
#        156736
#        177451
#        194356
#        212821
#        232326
#        250713
#
# Disc length: 3609 seconds
#
# Revision: 2
# Processed by: cddbd v1.4PL0 Copyright (c) Steve Scherf et al.
# Submitted via: ExactAudioCopy v0.90b4
#
DISCID=d00e170e
DTITLE=Mr. Credo - Time to Credo
DYEAR=2002
DGENRE=Pop
TTITLE0=Hsh Bola
TTITLE1=Хулигано
TTITLE2=Ламбада
TTITLE3=Давай Лавэ!
TTITLE4=X-Tasy
TTITLE5=Снег
TTITLE6=Мама Азия
TTITLE7=Cosa Nostra
TTITLE8=Воздушный шар
TTITLE9=Гармония
TTITLE10=Танцы при луне
TTITLE11=Открой свои глаза
TTITLE12=Девочка танцует
TTITLE13=Амфитамин
EXTD=
EXTT0=
EXTT1=
EXTT2=
EXTT3=
EXTT4=
EXTT5=
EXTT6=
EXTT7=
EXTT8=
EXTT9=
EXTT10=
EXTT11=
EXTT12=
EXTT13=
PLAYORDER=
